<?xml version="1.0" standalone="no"?>
<!DOCTYPE svg PUBLIC "-//W3C//DTD SVG 1.1//EN" "http://www.w3.org/Graphics/SVG/1.1/DTD/svg11.dtd" >
<svg xmlns="http://www.w3.org/2000/svg">
<metadata></metadata>
<defs>
<font id="a_romanusregular" horiz-adv-x="942" >
<font-face units-per-em="2048" ascent="1638" descent="-410" />
<missing-glyph horiz-adv-x="552" />
<glyph unicode="&#xd;" horiz-adv-x="552" />
<glyph unicode=" "  horiz-adv-x="552" />
<glyph unicode="&#x09;" horiz-adv-x="552" />
<glyph unicode="&#xa0;" horiz-adv-x="552" />
<glyph unicode="!" horiz-adv-x="485" d="M262 279h-37q0 133 -16 398t-16 398v127q0 258 51 258t51 -258v-125q0 -133 -16.5 -399t-16.5 -399zM332 80q0 -88 -88 -88q-39 0 -65.5 24.5t-26.5 63.5t26.5 65.5t65.5 26.5q37 0 62.5 -26.5t25.5 -65.5z" />
<glyph unicode="&#x22;" horiz-adv-x="710" d="M539 907h-27q-8 104 -35 299q-29 205 -28 238q0 70 73 69q80 0 80 -69q0 -27 -8 -92q-22 -148 -55 -445zM199 907h-25q-2 16 -55 445q-8 66 -8 92q0 70 73 69q78 0 78 -69q0 -27 -8 -92q-22 -148 -55 -445z" />
<glyph unicode="#" horiz-adv-x="1642" d="M631 991l121 516h98l-117 -516h307l123 516h97l-119 -516h334l-21 -82h-334l-69 -313h360l-22 -84h-359l-117 -512h-102l117 512h-307l-121 -512h-99l117 512h-348l23 84h348l73 313h-383l17 82h383zM948 596l74 313h-311l-72 -313h309z" />
<glyph unicode="$" horiz-adv-x="931" d="M502 -92l-68 -39v131q-166 0 -284 92q-131 100 -132 260q0 96 48.5 186.5t128.5 137.5l16 -21q-111 -96 -111 -282q0 -152 91.5 -240t242.5 -90v684q-152 106 -182 135q-98 92 -98 195q0 115 81.5 188.5t198.5 73.5v90l68 37v-127q117 0 205 -64h6v154h35v-463h-35 q0 178 -23 234q-41 102 -188 102v-475q174 -102 248 -174q129 -123 129 -262q0 -166 -105.5 -268.5t-271.5 -102.5v-92zM502 692v-649q295 0 295 315q0 102 -103 199q-61 55 -192 135zM434 846v436q-88 0 -142 -49t-54 -135q-1 -143 196 -252z" />
<glyph unicode="%" horiz-adv-x="1372" d="M303 -59h-72l842 1411h60zM655 954q0 -135 -85 -231t-218 -96q-154 0 -233 100q-74 92 -74 250q0 154 80 249t231 95q135 0 217 -91t82 -226v-50zM598 1004q0 115 -66.5 190.5t-179.5 75.5q-123 0 -190 -88q-59 -78 -60 -205q0 -295 250 -295q109 0 178 84q68 78 68 188 v50zM1327 313q0 -137 -85 -233t-220 -96q-152 0 -234 102q-74 94 -73 250q0 156 76 248q84 98 235 98q137 0 219 -90t82 -230v-49zM1268 362q0 117 -65.5 192t-180.5 75q-121 0 -188 -88q-59 -80 -60 -205q0 -293 248 -293q162 0 227 164q19 46 19 155z" />
<glyph unicode="&#x26;" horiz-adv-x="1497" d="M852 1432v-416h-31q0 332 -190 332q-70 0 -118 -47.5t-48 -116.5q0 -84 133 -144v-22q-162 -45 -268 -170q-109 -133 -109 -297q0 -203 159 -368t361 -165q197 0 346.5 143.5t149.5 338.5q0 160 -88 272q-96 121 -252 121q-125 0 -212 -98.5t-87 -225.5q0 -82 41 -157 q49 -90 125 -90q31 0 67.5 18t47.5 45l28 -14q-37 -104 -155 -105q-104 0 -174 92q-61 84 -62 193q0 188 164 307q96 72 350 166q246 92 330 162q51 43 51 82q0 31 -31 61l9 14q33 -8 62.5 -34.5t29.5 -57.5q0 -109 -217 -200q-158 -55 -316 -109v-4q145 0 258 -112.5 t113 -258.5q0 -252 -183.5 -422t-437.5 -170q-231 0 -399 157t-168 386q0 178 97.5 311.5t265.5 196.5v8q0 8 -60.5 51t-60.5 84q0 96 84 156q76 55 174 55q115 0 182 -67h8v119h31z" />
<glyph unicode="'" horiz-adv-x="372" d="M199 907h-25q-2 16 -55 445q-8 66 -8 92q0 70 73 69q78 0 78 -69q0 -27 -8 -92q-22 -148 -55 -445z" />
<glyph unicode="(" horiz-adv-x="641" d="M588 1434v-39q-223 -90 -301 -398q-45 -180 -45 -524q0 -346 45 -526q78 -311 301 -396v-43q-264 84 -363 400q-66 205 -65 565q0 358 65 565q101 316 363 396z" />
<glyph unicode=")" horiz-adv-x="643" d="M53 1395v39q432 -133 432 -961q0 -352 -69 -565q-102 -315 -363 -400v43q221 78 301 396q47 188 47 526q0 342 -47 526q-78 308 -301 396z" />
<glyph unicode="*" horiz-adv-x="794" d="M412 1135q6 -4 10 -5q16 0 235 183l43 -80q-23 -8 -268 -123v-8q0 -31 270 -121l-45 -76q-49 41 -237 172l-8 -4q4 -100 28 -297h-86q12 59 19 148q6 76 10 149q-8 4 -12 4q-29 0 -117 -73q-57 -49 -115 -99l-49 76q76 23 272 121v8q-47 45 -272 121l43 78 q43 -39 119 -92q102 -70 123 -87l8 5q-4 100 -29 299h86q-8 -37 -28 -299z" />
<glyph unicode="+" horiz-adv-x="1812" d="M948 678h580v-90h-580v-576h-86v576h-575v90h575v575h86v-575z" />
<glyph unicode="," horiz-adv-x="520" d="M297 6q-14 -6 -41 -6q-37 0 -61.5 25.5t-24.5 64.5t25.5 64.5t64.5 25.5q109 0 109 -151q0 -90 -37 -158q-45 -84 -127 -84v47q102 41 102 133q0 25 -10 39z" />
<glyph unicode="-" horiz-adv-x="647" d="M539 524v-86h-428v86h428z" />
<glyph unicode="." horiz-adv-x="520" d="M352 80q0 -39 -26.5 -64.5t-65.5 -25.5t-64.5 25.5t-25.5 64.5t25.5 64.5t64.5 25.5t65.5 -25.5t26.5 -64.5z" />
<glyph unicode="/" horiz-adv-x="657" d="M725 1462l-719 -1667h-82l707 1667h94z" />
<glyph unicode="0" d="M879 672q0 -258 -78 -441q-106 -248 -330 -247q-219 0 -328 249q-80 184 -80 439q0 250 82 434q109 244 326 244q219 0 328 -244q80 -182 80 -434zM791 696q0 225 -56 381q-82 227 -264 228q-172 0 -258 -240q-61 -172 -61 -385q0 -231 55 -401q82 -252 264 -252 q170 0 258 264q62 188 62 405z" />
<glyph unicode="1" d="M111 39h323v1178q-63 -68 -211 -181l-26 25q203 152 284 293h35v-1123q0 -145 84 -178q35 -14 215 -14v-39h-704v39z" />
<glyph unicode="2" d="M150 793h-33v561h33v-226h4q119 225 348 226q129 0 218 -93.5t89 -224.5q0 -209 -102 -340l-469 -606h536v350h35v-440h-698l467 616q123 162 122 375q0 127 -59 203q-63 86 -186 86q-231 0 -293 -244q-12 -48 -12 -243z" />
<glyph unicode="3" d="M262 735l-18 29q197 86 239 110q154 88 170 183q2 18 2 43q0 90 -51 146.5t-139 56.5q-119 0 -181.5 -79t-62.5 -202h-33v328h33v-121h8q35 57 121 90q74 31 150 31q102 0 172.5 -72t70.5 -174q0 -164 -176 -248v-6q141 -20 226.5 -112.5t85.5 -233.5q0 -223 -195 -377 q-180 -143 -410 -143q-109 0 -208 49l16 43q109 -41 192 -41q207 0 355 127q156 133 155 336q0 133 -77.5 220t-208.5 87q-127 0 -236 -70z" />
<glyph unicode="4" d="M330 39h176v344h-477v39l585 932l23 -21l-49 -73v-795h180l43 59l27 -18l-76 -123h-174v-158q0 -121 22 -149q29 -37 144 -37v-39h-424v39zM109 465h397v649h-4z" />
<glyph unicode="5" d="M741 1233h-542v-440h6q125 129 289 129q145 0 231 -96.5t86 -243.5q0 -256 -163 -429t-417 -173q-43 0 -96 18v39q49 -25 96 -25q205 0 347 187q131 172 131 383q0 115 -72 194.5t-184 79.5q-139 0 -287 -164v629h543v160h32v-248z" />
<glyph unicode="6" d="M745 1350v-52q-160 0 -262 -65q-137 -88 -225 -254t-88 -330h6q55 78 142.5 133.5t175.5 55.5q184 0 284 -119q94 -113 94 -301q0 -176 -117.5 -305t-293.5 -129q-199 0 -297 166q-82 135 -82 348q0 233 84 432q94 223 272 340q123 80 307 80zM170 442q0 -164 82 -274 q92 -121 250 -121q125 0 211 121q80 111 80 240q0 367 -318 366q-88 0 -163.5 -47t-114.5 -125q-27 -56 -27 -160z" />
<glyph unicode="7" d="M692 0h-375v6q0 510 437 1229h-631v-358h-33v518h33v-52q6 -23 37 -22h602q55 0 72 25l26 -25q-168 -272 -280 -537q-147 -348 -148 -575q0 -106 82 -143q55 -27 178 -27v-39z" />
<glyph unicode="8" d="M59 412q0 129 99 231q72 72 215 145q-106 68 -152 123q-59 76 -59 183q0 125 100 194q88 61 219 62q137 0 223.5 -87t86.5 -225q0 -162 -177 -284q135 -88 193 -168q74 -100 74 -240q0 -180 -127 -276q-115 -86 -301 -86q-176 0 -287 129q-107 121 -107 299zM715 1047 q0 121 -66.5 192.5t-187.5 71.5q-94 0 -163 -61.5t-69 -155.5q0 -98 129 -191q6 -4 213 -123q144 111 144 267zM145 391q0 -158 95.5 -264.5t253.5 -106.5q143 0 225 97q76 92 76 237q0 125 -131 246q-100 92 -244 160q-141 -61 -203 -139q-72 -89 -72 -230z" />
<glyph unicode="9" d="M197 -16v51q160 0 264 67q135 88 223 253t88 327q-152 -188 -323 -188q-174 0 -281 124q-98 119 -98 297q0 176 118.5 305.5t292.5 129.5q193 0 293 -170q86 -141 86 -346q0 -344 -155 -580q-180 -270 -508 -270zM772 889q0 147 -90 268q-98 129 -242 129 q-125 0 -211 -121q-80 -111 -79 -239q0 -166 75 -262q82 -106 244 -107q84 0 161 52.5t115 129.5q27 54 27 150z" />
<glyph unicode=":" horiz-adv-x="520" d="M352 80q0 -39 -26.5 -64.5t-65.5 -25.5t-64.5 25.5t-25.5 64.5t25.5 64.5t64.5 25.5t65.5 -25.5t26.5 -64.5zM352 799q0 -39 -26.5 -65.5t-65.5 -26.5t-64.5 26.5t-25.5 65.5q0 88 90 88q39 0 65.5 -24.5t26.5 -63.5z" />
<glyph unicode=";" horiz-adv-x="520" d="M352 797q0 -39 -26.5 -64.5t-65.5 -25.5t-64.5 25.5t-25.5 64.5t25.5 64.5t64.5 25.5t65.5 -25.5t26.5 -64.5zM297 6q-14 -6 -41 -6q-37 0 -61.5 25.5t-24.5 64.5t25.5 64.5t64.5 25.5q109 0 109 -151q0 -90 -37 -158q-45 -84 -127 -84v47q102 41 102 133q0 25 -10 39z " />
<glyph unicode="&#x3c;" horiz-adv-x="1820" d="M301 666l1219 499v-92l-1082 -440l1082 -436v-95l-1219 500v64z" />
<glyph unicode="=" horiz-adv-x="1853" d="M1546 866v-86h-1239v86h1239zM1546 489v-88h-1239v88h1239z" />
<glyph unicode="&#x3e;" horiz-adv-x="1824" d="M303 1073v92l1219 -499v-64l-1219 -500v95l1079 436z" />
<glyph unicode="?" horiz-adv-x="827" d="M688 1122q0 129 -59 211q-66 92 -191 92q-135 0 -207 -112q-59 -96 -59 -240q0 -92 31 -166q39 -98 119 -98q49 0 79.5 37t30.5 88q0 41 -12 74l33 10q25 -31 24 -88q0 -68 -52 -116t-120 -48q-100 0 -168 98q-61 88 -61 193q0 172 96 284q102 121 270 121 q154 0 244 -110q84 -102 84 -260q0 -145 -94 -269q-88 -90 -178 -180q-94 -100 -95 -190q0 -35 34 -57.5t34 -51.5q0 -41 -51 -41q-33 0 -57.5 37t-24.5 74q0 127 90 241q84 98 170 195q90 125 90 272zM518 80q0 -88 -88 -88q-39 0 -65.5 24.5t-26.5 63.5t26.5 65.5 t65.5 26.5q37 0 62.5 -26.5t25.5 -65.5z" />
<glyph unicode="@" horiz-adv-x="1873" d="M1192 696q0 92 -57.5 171t-147.5 79q-141 0 -227 -201q-70 -160 -70 -325q0 -96 41 -168q47 -88 137 -88q39 0 84 29q115 72 181 221q59 135 59 282zM1661 -25l29 -30q-268 -209 -648 -209q-371 0 -645 233q-289 246 -288 611q0 356 250.5 594.5t607.5 238.5 q338 0 563 -190q238 -203 237 -535q0 -207 -98 -371q-117 -195 -309 -194q-211 0 -211 213h-4q-109 -213 -287 -213q-137 0 -217 117q-70 102 -70 243q0 166 125 326q131 170 293 170q166 0 232 -184h2l43 166h123l-119 -570q-12 -59 -13 -121q0 -47 28 -79.5t75 -32.5 q168 0 278 186q94 160 95 340q0 305 -226 500q-213 184 -522 184q-350 0 -571 -224t-221 -575q0 -338 262 -569q254 -223 596 -223q364 -1 610 198z" />
<glyph unicode="A" horiz-adv-x="1021" d="M365 0h-371v39h80l424 1493l379 -1344q25 -86 43 -108q31 -41 102 -41v-39h-346v39h145l-233 833h-230l-172 -614q-18 -66 -18 -111q0 -82 63 -100q25 -8 134 -8v-39zM369 911h211l-84 306q-14 51 -15 100h-4z" />
<glyph unicode="B" horiz-adv-x="1142" d="M262 0h-215v39h123v1243q0 74 -25.5 95.5t-97.5 21.5v35h227v-82h5q111 115 288 114q106 0 189 -63q90 -70 90 -172q0 -197 -240 -250v-4q213 -18 350 -148q141 -137 142 -348q0 -233 -150.5 -365t-388.5 -132q-70 0 -156 24q-94 29 -137 72h-4v-80zM274 1235v-231 q86 -16 175 -17q121 0 198 45q94 53 94 166q0 100 -57 163.5t-156 63.5q-86 0 -163 -51q-91 -59 -91 -139zM444 952h-170v-678q0 -121 95 -192q86 -66 211 -66q199 0 311 148q102 133 102 336q0 452 -549 452z" />
<glyph unicode="C" horiz-adv-x="1298" d="M1139 1540h35v-553h-35v156q0 133 -109 207q-94 61 -233 61q-262 0 -443 -201q-172 -195 -172 -460q0 -297 180 -510q190 -223 484 -224q223 0 389 166l29 -30q-184 -180 -457 -181q-326 0 -531.5 214t-205.5 540q0 303 204.5 516t505.5 213q248 0 359 -90v176z" />
<glyph unicode="D" horiz-adv-x="1386" d="M47 39h123v1253q0 66 -33 88q-23 14 -90 15v39h227v-60h5q215 88 403 88q305 0 494 -217q178 -207 178 -516t-217 -526t-527 -217q-80 0 -180 24q-117 29 -164 72h-4v-82h-215v39zM274 1300v-1021q0 -102 125 -177q109 -63 219 -63q307 0 474 194q154 182 153 496 q0 274 -143 471q-158 217 -424 217q-222 0 -404 -117z" />
<glyph unicode="E" horiz-adv-x="772" d="M274 1399v-400h197v183h31v-453h-31q0 154 -22 186q-31 51 -175 52v-928h185q76 0 129 10q90 16 112 146q6 39 7 204h34v-499h-34v100h-662v39h125v1255q0 66 -33 88q-27 16 -92 17v35h664v106h32v-534h-34q0 182 -7 223q-23 141 -118 160q-51 10 -140 10h-168z" />
<glyph unicode="F" horiz-adv-x="776" d="M274 1399v-400h244v183h33v-453h-33q0 172 -34.5 205t-209.5 33v-731q0 -137 31 -167t170 -30v-39h-430v39h125v1255q0 66 -33 88q-27 16 -92 17v35h676v106h33v-504h-33q0 172 -6 209q-23 129 -115 146q-45 8 -139 8h-187z" />
<glyph unicode="G" horiz-adv-x="1628" d="M1411 424v-141q0 -37 29 -60q-303 -252 -615 -252q-319 0 -531 206t-212 525q0 322 230.5 543t551.5 221q197 0 441 -98v172h32v-553h-32v121q0 305 -447 305q-299 0 -485 -203q-178 -199 -178 -499q0 -293 188 -494t481 -201q229 0 441 158v135q0 45 -7 66 q-12 41 -88 49h-112v33h471v-33h-158z" />
<glyph unicode="H" horiz-adv-x="1024" d="M621 1399v35h360v-35h-125v-1229q0 -74 25.5 -102.5t99.5 -28.5v-39h-360v39h129v919h-476v-788q0 -131 129 -131v-39h-358v39h125v1245q0 70 -27.5 92.5t-97.5 22.5v35h358v-35h-129v-402h476v258q0 86 -22.5 115t-106.5 29z" />
<glyph unicode="I" horiz-adv-x="464" d="M43 1399v35h381v-35h-139v-1229q0 -74 31.5 -102.5t107.5 -28.5v-39h-381v39h135v1245q0 70 -37 96q-26 19 -98 19z" />
<glyph unicode="J" horiz-adv-x="913" d="M399 1395v39h465v-39h-127v-985q0 -215 -75 -320q-90 -119 -297 -119q-125 0 -207 68q-88 72 -88 192q0 82 50 158t124 117l16 -14q-84 -113 -84 -234q0 -102 47 -170q55 -78 154 -78q164 0 219 127q35 80 35 273v827q0 106 -68 139q-41 19 -164 19z" />
<glyph unicode="K" horiz-adv-x="1054" d="M35 39h123v1245q0 76 -27 98q-23 16 -96 17v35h358v-35h-133v-502q125 0 176 84l209 340q84 135 186 135q57 0 97.5 -39t40.5 -96t-56.5 -97t-115.5 -40v14q33 12 61.5 43t28.5 64q0 92 -70 92q-74 0 -121 -76l-245 -391l405 -803q29 -55 66 -74q31 -14 98 -14v-39h-221 l-424 872q-45 -12 -115 -12v-637q0 -106 25 -141q33 -43 141 -43v-39h-391v39z" />
<glyph unicode="L" horiz-adv-x="729" d="M45 39h125v1255q0 66 -33 88q-27 16 -92 17v35h416v-35h-187v-1190q0 -96 25 -129q31 -41 129 -41q158 0 201 43t43 217v313h35v-712h-35v100h-627v39z" />
<glyph unicode="M" horiz-adv-x="1142" d="M33 39h127v1239q0 72 -28 96.5t-99 24.5v35h198l340 -805h7l296 805h232v-35h-127v-1229q0 -78 23.5 -104.5t103.5 -26.5v-39h-354v39h122v1243h-4l-321 -848l-340 803h-4v-1067q0 -78 45 -107q35 -25 115 -24v-39h-332v39z" />
<glyph unicode="N" horiz-adv-x="1005" d="M47 1399v35h193l534 -1201h6v1010q0 98 -28.5 127t-128.5 29v35h340v-35h-138v-1522l-600 1342h-10v-1014q0 -102 34 -134t136 -32v-39h-340v39h125v1216q0 86 -18 111q-23 33 -105 33z" />
<glyph unicode="O" horiz-adv-x="1705" d="M1626 721q0 -324 -246 -541q-238 -209 -565 -209q-315 0 -525 211t-210 527q0 322 231 540q229 213 553 213q322 0 542 -209.5t220 -531.5zM1513 731q0 285 -193.5 489.5t-475.5 204.5q-293 0 -477 -227q-174 -211 -174 -510q0 -291 182 -481q186 -197 475 -197 q201 0 362.5 107.5t243.5 292.5q57 128 57 321z" />
<glyph unicode="P" horiz-adv-x="1320" d="M49 39h127v1243q0 70 -27.5 93.5t-99.5 23.5v35h230v-82q213 111 405 110q260 0 423 -161.5t163 -421.5q0 -281 -177.5 -451t-457.5 -170q-203 0 -356 115v-133q0 -125 35.5 -163t158.5 -38v-39h-424v39zM279 1255v-774q139 -176 380 -176q248 0 385 162q125 152 125 403 q0 221 -145 382t-365 161q-192 0 -380 -158z" />
<glyph unicode="Q" horiz-adv-x="1705" d="M1626 719q0 -461 -465 -674q90 -113 180 -223q123 -137 232 -137q217 0 217 131q0 102 -84 102q-31 0 -55.5 -22.5t-24.5 -53.5q0 -43 55 -63v-10q-41 0 -71.5 23.5t-30.5 64.5q0 39 33 65.5t74 26.5q135 0 135 -133q0 -86 -86 -127q-66 -33 -162 -33q-127 0 -264 129 q-72 68 -199 235q-141 -49 -295 -49q-315 0 -525 211t-210 527q0 334 227 546q221 207 557 207q324 0 543 -210.5t219 -532.5zM846 211q166 0 291 -137q190 90 286 270q90 166 90 387q0 285 -193.5 489.5t-475.5 204.5q-293 0 -479 -225q-172 -213 -172 -512 q0 -233 120 -409q127 -186 346 -244q-27 33 -26 57q0 119 213 119zM823 172q-147 0 -147 -84q0 -78 180 -78q131 0 231 41q-110 121 -264 121z" />
<glyph unicode="R" horiz-adv-x="1441" d="M274 1260v-838h5l55 78q211 -172 366 -172q225 0 371 164q141 158 141 385q0 229 -157.5 384.5t-386.5 155.5q-232 1 -394 -157zM45 39h125v1245q0 68 -27.5 91.5t-97.5 23.5v35h229v-82q231 111 418 110q268 0 446.5 -161.5t178.5 -428.5q0 -254 -172 -417.5 t-426 -163.5q-72 0 -135 18v-10q0 -43 231 -145q207 -90 285 -107.5t135 -17.5q51 0 154 30l6 -32q-109 -43 -199 -43q-365 0 -922 432v-166q0 -125 36 -168t159 -43v-39h-424v39z" />
<glyph unicode="S" horiz-adv-x="1140" d="M864 999h-35q0 217 -12 269q-35 152 -182 151q-84 0 -150.5 -58t-66.5 -142q0 -147 180 -256q168 -92 336 -187q180 -127 180 -317q0 -236 -170 -369q-154 -119 -397 -119q-203 0 -352 113q-166 125 -166 319q0 170 118.5 282t290.5 112q111 0 191 -64q86 -70 86 -178 q0 -61 -40 -102t-102 -41q-47 0 -86 26l13 19q16 -14 37 -15q29 0 60.5 42t31.5 71q0 84 -68.5 140.5t-152.5 56.5q-133 0 -222.5 -89.5t-89.5 -222.5q0 -180 158 -307q147 -119 332 -119q178 0 308 117t130 293q0 174 -176 303q-162 98 -326 195q-176 121 -176 272 q0 119 94 197q90 72 211 71q92 0 178 -43v123h35v-543z" />
<glyph unicode="T" horiz-adv-x="897" d="M700 39v-39h-501v39h196v1360h-112q-129 0 -169 -43t-44 -201q2 78 2 -192h-33v577h33v-106h753v106h35v-577h-35q0 338 4 190q-4 160 -40.5 203t-155.5 43h-131v-1229q0 -98 53 -121q26 -10 145 -10z" />
<glyph unicode="U" horiz-adv-x="993" d="M37 1399v35h354v-35h-125v-1034q0 -170 41 -244q55 -104 211 -105q266 0 266 349v905q0 88 -27.5 108.5t-119.5 20.5v35h319v-35h-127v-1000q0 -205 -61 -303q-78 -125 -270 -125q-190 0 -271 125q-63 100 -63 303v861q0 80 -22.5 109.5t-104.5 29.5z" />
<glyph unicode="V" horiz-adv-x="905" d="M289 1399h-150l324 -1172q10 -39 22 -96h4l295 1073q10 37 11 82q0 72 -66 98q-41 14 -129 15v35h371v-35h-80l-422 -1491l-385 1339q-25 88 -41 111q-31 41 -104 41v35h350v-35z" />
<glyph unicode="W" horiz-adv-x="1351" d="M264 1399h-123l322 -1172q10 -41 22 -96h4l179 651l-133 465q-29 98 -39 113q-29 39 -109 39v35h584v-35h-80l-154 -539l176 -633q10 -33 23 -96h2l295 1073q10 37 10 86q0 68 -47 92q-33 16 -109 17v35h330v-35h-80l-422 -1491l-221 784h-6l-219 -784l-385 1339 q-29 100 -39 115q-25 37 -106 37v35h325v-35zM586 1399l125 -447h4q27 86 51 174q33 115 33 185q0 59 -21.5 73.5t-85.5 14.5h-106z" />
<glyph unicode="X" horiz-adv-x="1165" d="M125 39l407 848l-229 448q-25 47 -78 60q-20 4 -102 4v35h383v-35h-123l205 -406h8l158 324q12 25 12 47q0 35 -117 35v35h350v-35h-161l-222 -459l363 -764q41 -86 94 -115q45 -23 144 -22v-39h-449v39h172l-377 784h-6l-295 -614q-37 -78 -37 -109q0 -47 74 -59 q20 -2 111 -2v-39h-453v39h168z" />
<glyph unicode="Y" horiz-adv-x="1036" d="M895 1399l-324 -733v-430q0 -141 33 -169t180 -28v-39h-528v39h213v618l-311 664q-25 53 -64 68q-23 10 -94 10v35h387v-35h-156l310 -670h8l235 535q25 55 25 82q0 41 -59 51q-14 2 -93 2v35h355v-35h-117z" />
<glyph unicode="Z" horiz-adv-x="792" d="M0 0l594 1399h-291q-106 0 -139 -37t-37 -199q2 68 2 -188h-33v565h33v-106h586l-586 -1395h360q145 0 185.5 42t40.5 189v267h35v-637h-35v100h-715z" />
<glyph unicode="[" horiz-adv-x="671" d="M621 -440v-33h-457v1907h457v-35h-377v-1839h377z" />
<glyph unicode="\" horiz-adv-x="864" d="M729 -205l-717 1667h90l709 -1667h-82z" />
<glyph unicode="]" horiz-adv-x="532" d="M492 -473h-453v33h369v1839h-369v35h453v-1907z" />
<glyph unicode="^" horiz-adv-x="864" d="M377 1087h-31l207 379h47l211 -379h-35l-196 277z" />
<glyph unicode="_" horiz-adv-x="1024" d="M-12 -524v86h1048v-86h-1048z" />
<glyph unicode="`" horiz-adv-x="634" d="M522 1151h-37l-233 268q-33 37 -33 60q0 31 27 30q33 0 57 -34z" />
<glyph unicode="a" horiz-adv-x="817" d="M780 39v-39h-202v82q-109 -100 -242 -100q-117 0 -195 90q-76 84 -75 202q0 125 88 216.5t211 91.5q129 0 213 -84v82q0 283 -213 282q-104 0 -163 -72.5t-59 -179.5h-28v320h28v-162q76 133 256 133q158 0 217 -119q39 -82 39 -260v-407q0 -55 39 -70q16 -6 86 -6z M584 287q0 131 -45 192q-51 70 -179 70q-98 0 -161 -90q-55 -80 -56 -185q0 -102 65.5 -174.5t168.5 -72.5q57 0 109.5 38.5t78.5 94.5q19 37 19 127z" />
<glyph unicode="b" horiz-adv-x="1142" d="M240 98v-98h-197v39h117v1309h-8l-76 -97l-25 19l209 237l19 -18l-39 -45v-684h4q147 147 374 147q195 0 327 -122.5t132 -315.5t-141 -339t-334 -146q-198 -1 -362 114zM238 623v-334q0 -121 127 -201q111 -72 237 -72q172 0 284.5 125t112.5 299q0 184 -114.5 303 t-298.5 119q-100 0 -217 -69q-131 -78 -131 -170z" />
<glyph unicode="c" horiz-adv-x="909" d="M846 178l20 -26q-162 -170 -362 -170q-184 0 -309 125.5t-125 310.5q0 205 144 344t349 139q115 0 199 -39h4v94h29v-464h-29v262q-92 109 -234 108q-180 0 -286 -131q-100 -123 -101 -307q0 -172 108.5 -289t278.5 -117q138 0 314 160z" />
<glyph unicode="d" horiz-adv-x="1150" d="M907 0v162q-178 -178 -395 -178q-203 0 -324.5 123.5t-121.5 326.5q0 193 138 330t333 137q203 0 370 -141v588h-6l-84 -97l-18 19l205 237l18 -18l-35 -45v-1329q0 -57 39 -70q16 -6 88 -6v-39h-207zM907 307v307q-43 115 -143 181.5t-225 66.5q-188 0 -293 -119 q-98 -111 -99 -303q0 -176 95 -293q100 -127 272 -127q209 0 334 164q59 78 59 123z" />
<glyph unicode="e" horiz-adv-x="1050" d="M174 618h721v5q0 111 -119 180q-100 57 -219 57q-287 0 -383 -242zM977 338l27 -8q-53 -162 -183.5 -255t-300.5 -93q-186 0 -318 123.5t-132 310.5q0 211 134 349t343 138q336 0 434 -317h-821q-25 -70 -25 -146q0 -193 113.5 -304t308.5 -111q143 0 258 90 q111 84 162 223z" />
<glyph unicode="f" horiz-adv-x="571" d="M244 1165v-282h188v-33h-188v-698q0 -90 51 -109q12 -4 137 -4v-39h-395v39h127v811h-105v33h105q0 6 -2 121q-2 74 2 122q4 66 18 119q31 115 114 182.5t198 67.5q102 0 153 -39h8v57h31v-311h-31q0 139 -18 180q-33 74 -154 74q-239 0 -239 -291z" />
<glyph unicode="g" horiz-adv-x="944" d="M733 922l49 -21q-27 -63 -102 -104q61 -80 61 -164q0 -117 -90 -203t-207 -86q-123 0 -213 72q-49 -33 -49 -72t35 -63q59 -41 217 -50q190 -12 266 -36q150 -47 230 -187q39 -68 39 -155q0 -217 -148 -345q-139 -119 -360 -118q-190 0 -312 117.5t-122 308.5 q0 123 75 229q72 98 189 154v8q-150 33 -150 123q0 70 66 110q-59 88 -60 172q0 111 93.5 200t203.5 89q121 0 211 -76q66 38 78 97zM432 184q-121 0 -234.5 -114.5t-113.5 -235.5q0 -182 125 -291q117 -100 303 -100q162 0 275.5 105.5t113.5 267.5q0 193 -145 288 q-121 80 -324 80zM199 623q0 -102 86 -168q78 -61 184 -62q84 0 149.5 66.5t65.5 150.5q0 113 -63.5 180.5t-176.5 67.5q-102 0 -173.5 -66.5t-71.5 -168.5z" />
<glyph unicode="h" horiz-adv-x="856" d="M59 39h105v1304h-4l-80 -92l-21 19l205 237l25 -20l-45 -51v-670h6q100 135 225 135q225 0 225 -319v-467q0 -76 107 -76v-39h-283v39h97v579q0 109 -27 162q-37 78 -137 78q-78 0 -145.5 -82t-67.5 -162v-499q0 -76 104 -76v-39h-289v39z" />
<glyph unicode="i" horiz-adv-x="378" d="M39 39h113v719h-5l-79 -88l-23 18l209 234l18 -15l-39 -47v-743q0 -78 107 -78v-39h-301v39zM233 1124q0 -59 -57 -59q-61 0 -61 59q0 61 61 62q57 -1 57 -62z" />
<glyph unicode="j" horiz-adv-x="382" d="M164 752h-4l-88 -86l-19 18l203 238l27 -25l-39 -45v-954q0 -174 -70 -283q-82 -131 -246 -131q-61 0 -102 31.5t-41 91.5q0 57 37 88l10 -6q-25 -31 -25 -82q0 -84 130 -84q227 0 227 383v846zM244 1122q0 -61 -60 -61q-59 0 -59 61t59 62q60 -1 60 -62z" />
<glyph unicode="k" horiz-adv-x="845" d="M59 39h105v1304h-4l-80 -92l-21 19l205 237l23 -16l-43 -47v-930q41 0 67 37l187 256q63 88 131 88q90 0 90 -88q0 -41 -37 -67.5t-78 -26.5v12q61 18 62 70q0 61 -48 61q-45 0 -79 -49l-209 -293l325 -418q35 -45 62 -53q14 -4 84 -4v-39h-185l-350 477h-22v-362 q0 -76 114 -76v-39h-299v39z" />
<glyph unicode="l" horiz-adv-x="425" d="M16 39h154v1315l-84 -103l-23 19l209 237l23 -18l-45 -53v-1305q0 -63 45 -82q25 -10 100 -10v-39h-379v39z" />
<glyph unicode="m" horiz-adv-x="1075" d="M244 614v-483q0 -92 94 -92v-39h-279v39h105v725h-4l-88 -92l-21 22l203 228l25 -21l-35 -43v-76h4q63 119 176 119q131 0 147 -121h7q57 121 172 121q109 0 145 -78q27 -53 27 -176v-516q0 -92 102 -92v-39h-264v39h80v641q0 170 -99 170q-76 0 -120 -82 q-39 -68 -39 -152v-485q0 -92 96 -92v-39h-256v39h80v641q0 170 -90 170q-76 0 -125 -84q-43 -72 -43 -152z" />
<glyph unicode="n" horiz-adv-x="847" d="M59 39h105v727l-88 -96l-25 18l209 234l27 -21l-43 -49v-72h4q88 121 229 121q217 0 217 -319v-455q0 -88 105 -88v-39h-277v39h92v575q0 236 -165 236q-82 0 -143.5 -67.5t-61.5 -151.5v-504q0 -88 102 -88v-39h-287v39z" />
<glyph unicode="o" horiz-adv-x="1075" d="M70 444q0 195 143 326t340 131q193 0 323 -122t130 -314q0 -203 -141.5 -342t-346.5 -139q-195 0 -321.5 131.5t-126.5 328.5zM150 451q0 -166 98 -293q109 -137 270 -138q172 0 290 120t118 292t-99 297q-106 135 -274 135q-186 0 -294.5 -113.5t-108.5 -299.5z" />
<glyph unicode="p" horiz-adv-x="1148" d="M283 901l-39 -45v-121h4q154 166 375 166q205 0 332.5 -128t127.5 -333q0 -209 -134 -332.5t-343 -123.5q-233 0 -358 114h-4v-485q0 -61 37 -74q12 -4 90 -4v-35h-301v35h94v1225h-4l-84 -92l-25 18l209 236zM242 602v-313q0 -125 125 -203q106 -66 239 -66 q397 0 398 420q0 178 -119 298t-295 120q-106 0 -221 -74q-127 -82 -127 -182z" />
<glyph unicode="q" horiz-adv-x="1155" d="M1163 852h-172v-1239q0 -61 29 -74q12 -4 86 -4v-35h-344v35h149v592q-90 -94 -170 -123q-63 -23 -209 -22q-201 0 -331.5 120.5t-130.5 319.5q0 207 136 343t343 136q240 0 358 -115h4v97h252v-31zM913 283v315q0 123 -125 199q-109 66 -239 65q-178 0 -288.5 -120.5 t-110.5 -299.5q0 -186 113.5 -301.5t299.5 -115.5q113 0 225 71q125 81 125 187z" />
<glyph unicode="r" horiz-adv-x="651" d="M602 596q0 100 -2 117q-8 66 -49 100q-51 45 -111 45q-84 0 -140 -72.5t-56 -158.5v-496q0 -63 47 -82q25 -10 102 -10v-39h-325v39h96v727l-88 -96l-25 18l209 234l27 -15l-43 -49v-92h6q31 57 95.5 96t127.5 39q72 0 125 -43h4v94h27v-356h-27z" />
<glyph unicode="s" horiz-adv-x="849" d="M629 973h28v-363h-28q0 131 -29 181q-39 68 -160 67q-59 0 -104 -32.5t-45 -90.5q0 -88 129 -147q121 -51 242 -105q129 -78 129 -207q0 -156 -125 -231q-100 -61 -267 -61q-139 0 -239 67q-115 78 -115 211q0 84 54.5 138.5t138.5 54.5q59 0 105 -39t46 -97 q0 -59 -43 -90.5t-102 -31.5v14q78 31 78 92q0 43 -32 75t-75 32q-53 0 -89 -47.5t-36 -100.5q0 -115 100 -182q88 -59 209 -60q131 0 213 48q100 59 101 180q0 125 -131 188q-121 47 -244 94q-131 61 -131 179q0 86 78 141q72 51 159 51q113 0 179 -43h6v115z" />
<glyph unicode="t" horiz-adv-x="522" d="M51 883h111v420l80 90v-510h245v-33h-245v-598q0 -231 133 -232q59 0 96 29q25 18 66 78l24 -12q-74 -131 -194 -131q-137 0 -181 122q-25 68 -24 240v504h-111v33z" />
<glyph unicode="u" horiz-adv-x="860" d="M164 791h-4l-82 -93l-25 23l209 235l27 -20l-45 -53v-621q0 -236 143 -235q86 0 157.5 78.5t71.5 164.5v482q0 55 -20.5 76.5t-73.5 21.5v33h174v-752q0 -59 35 -80q25 -12 90 -12v-39h-205v123h-4q-53 -80 -100 -107q-53 -33 -143 -32q-127 0 -174 98q-31 66 -31 211 v498z" />
<glyph unicode="v" horiz-adv-x="817" d="M805 850h-86l-293 -866h-33l-274 827h-4l-99 -113l-22 21l207 235l24 -18l-45 -53l252 -766h4l148 461q39 121 39 206q0 51 -35 62q-12 4 -80 4v33h297v-33z" />
<glyph unicode="w" horiz-adv-x="1345" d="M801 850h-82l-8 -23l231 -710h4l152 461q43 131 43 206q0 51 -43 64q-12 2 -88 2v33h311v-33h-90l-293 -866h-31l-239 716l-242 -716h-33l-274 827h-4l-99 -113l-22 21l207 235l24 -18l-45 -53l252 -766h4l148 461q43 135 43 206q0 49 -37 62q-14 4 -82 4v33h293v-33z " />
<glyph unicode="x" horiz-adv-x="968" d="M365 0h-349v39h109l313 463l-194 299h-13l-73 -88l-27 22l195 219l22 -18l-51 -62l192 -305l111 164q31 45 31 84q0 29 -35 35h-59v31h286v-31h-98l-213 -315l252 -392q45 -70 80 -88t114 -18v-39h-327v39h110l-280 432l-201 -301q-29 -43 -29 -84q0 -37 54 -45 q10 -2 80 -2v-39z" />
<glyph unicode="y" horiz-adv-x="802" d="M-59 -532v116h18q0 -16 19.5 -32.5t35.5 -16.5q70 0 101 41q141 193 245 457l-292 778h-5l-98 -113l-24 21l209 235l24 -18l-45 -53l270 -742h9l155 437q39 109 39 206q0 68 -108 68v31h311v-31h-92q-53 -129 -113 -295q-395 -1114 -588 -1114q-51 0 -71 25z" />
<glyph unicode="z" horiz-adv-x="731" d="M641 0h-608l532 852h-311q-113 0 -139 -104q-6 -29 -6 -199h-29v446h29v-112h567l-531 -844h281q166 0 201 90q14 37 14 244h35v-451h-35v78z" />
<glyph unicode="{" horiz-adv-x="974" d="M930 1661v-51q-193 0 -248 -76q-45 -61 -45 -248q0 -41 2 -112.5t2 -104.5q0 -174 -55 -250q-72 -98 -275 -117v-6q182 -16 254 -94t72 -262q0 -12 -2 -72.5t-2 -101.5q0 -231 49 -299q55 -78 248 -78v-51q-231 0 -320 69q-102 80 -102 332q0 31 2 92v91q0 207 -72 272 q-59 53 -241 76v59q84 10 127 21q76 18 114 53q72 63 72 270q0 29 -2 88v90q0 254 102 338q89 72 320 72z" />
<glyph unicode="|" horiz-adv-x="1146" d="M524 -524v2240h97v-2240h-97z" />
<glyph unicode="}" horiz-adv-x="974" d="M930 729v-59q-182 -23 -242 -76q-72 -66 -72 -266q0 -31 2.5 -96.5t2.5 -98.5q0 -246 -103 -326q-88 -70 -321 -69v51q193 0 249 78q47 63 48 289q0 45 -2.5 108.5t-2.5 75.5q0 184 72 262t254 94v6q-203 18 -274 117q-55 76 -56 250q0 33 2 104.5t2 112.5q0 190 -43 248 q-57 76 -249 76v51q233 0 321 -72q102 -82 103 -332q0 -31 -2.5 -95t-2.5 -95q0 -201 72 -264q58 -51 242 -74z" />
<glyph unicode="~" horiz-adv-x="923" d="M676 1370h33q0 -70 -37 -121q-41 -59 -109 -59q-41 0 -112.5 29.5t-112.5 29.5q-94 0 -94 -92h-31q0 72 35 121q39 57 108 57q41 0 113 -28.5t111 -28.5q41 0 68.5 25.5t27.5 66.5z" />
<glyph unicode="&#xa4;" horiz-adv-x="1284" d="M98 1397l60 61l213 -213q123 98 270 98q150 0 274 -98l211 213l62 -61l-213 -211q94 -119 94 -271t-94 -272l213 -211l-62 -61l-211 213q-121 -94 -274 -95q-152 0 -270 95l-213 -213l-60 61l213 211q-96 125 -96 272q0 150 96 271zM643 1257q-141 0 -241.5 -99 t-100.5 -240t100.5 -243t241.5 -102t242.5 101.5t101.5 243.5q0 141 -101.5 240t-242.5 99z" />
<glyph unicode="&#xa6;" horiz-adv-x="1058" d="M483 696v785h92v-785h-92zM483 -362v784h92v-784h-92z" />
<glyph unicode="&#xa7;" horiz-adv-x="862" d="M319 803q-258 84 -258 293q0 152 129 225q102 61 267 61q100 0 159.5 -24.5t71.5 -24.5q39 0 39 39h27v-289h-27q0 266 -270 267q-129 0 -219 -62q-102 -70 -103 -192q0 -135 180 -201q168 -53 338 -109q180 -84 181 -262q0 -246 -246 -282q227 -80 227 -297 q0 -158 -117 -254q-109 -92 -268 -92q-102 0 -199.5 35.5t-109.5 35.5q-33 0 -33 -71h-27v362h27v-80q0 -244 326 -243q139 0 233 69q106 78 107 213q0 115 -80 174q-66 47 -250 99q-193 53 -264 100q-123 80 -123 225q-1 244 282 285zM360 764q-113 0 -186 -51 q-86 -61 -86 -168q0 -125 158 -205q133 -68 272 -68q111 0 182 56q80 61 80 168q0 139 -149 211q-115 57 -271 57z" />
<glyph unicode="&#xa9;" horiz-adv-x="1740" d="M872 1417q295 0 503 -210t208 -507q0 -293 -210 -502.5t-503 -209.5q-297 0 -504.5 209t-207.5 503q0 297 208.5 507t505.5 210zM872 1343q-264 0 -449 -189t-185 -454q0 -264 184 -451.5t448 -187.5q262 0 448.5 187.5t186.5 451.5q0 266 -183.5 454.5t-449.5 188.5z M1157 1130h31v-317h-39q-66 285 -293 285q-268 0 -268 -391q0 -395 286 -396q186 0 297 178l31 -20q-117 -215 -346 -215q-176 0 -293 128t-117 304q0 182 114 316.5t292 134.5q63 0 142 -35t93 -35q58 0 70 63z" />
<glyph unicode="&#xab;" horiz-adv-x="720" d="M319 764h93l-277 -330l277 -328h-93l-243 328zM588 764h92l-277 -330l277 -328h-92l-242 328z" />
<glyph unicode="&#xac;" horiz-adv-x="1273" d="M63 442v82h1029v-420h-78v338h-951z" />
<glyph unicode="&#xad;" horiz-adv-x="647" d="M539 524v-86h-428v86h428z" />
<glyph unicode="&#xae;" horiz-adv-x="1740" d="M872 1417q295 0 503 -210t208 -507q0 -293 -210 -502.5t-503 -209.5q-297 0 -504.5 209t-207.5 503q0 297 208.5 507t505.5 210zM872 1343q-264 0 -449 -189t-185 -454q0 -264 184 -451.5t448 -187.5q262 0 448.5 187.5t186.5 451.5q0 266 -183.5 454.5t-449.5 188.5z M485 1085v39h404q125 0 207 -39q109 -51 108 -163q0 -147 -289 -207q115 -23 160 -64q53 -49 58 -157q2 -66 14 -107q14 -47 55 -47q84 0 84 135h37v-10q0 -180 -154 -180q-96 0 -127 65q-18 41 -18 148q0 127 -84 174q-61 35 -199 35v-258q0 -104 142 -105v-41h-398v41 q70 2 101 18q41 23 41 87v530q-1 106 -142 106zM741 1014v-275h70q270 0 270 183q0 88 -71 133q-59 39 -152 39q-117 0 -117 -80z" />
<glyph unicode="&#xb0;" horiz-adv-x="696" d="M350 1575q117 0 199 -83t82 -200q0 -119 -82 -200.5t-201 -81.5q-121 0 -201.5 80.5t-80.5 201.5t81.5 202t202.5 81zM350 1511q-92 0 -156.5 -63.5t-64.5 -155.5t64.5 -156.5t156.5 -64.5q90 0 154.5 65.5t64.5 155.5q0 92 -63.5 155.5t-155.5 63.5z" />
<glyph unicode="&#xb1;" horiz-adv-x="1763" d="M840 872v367h84v-367h577v-81h-577v-365h-84v365h-578v81h578zM262 102v82h1239v-82h-1239z" />
<glyph unicode="&#xb6;" horiz-adv-x="1058" d="M502 1530h461v-68h-134v-1462h-71v1462h-199v-1462h-72v809q-172 8 -278 96q-117 96 -117 264q0 170 123 271q113 90 287 90z" />
<glyph unicode="&#xb7;" horiz-adv-x="450" d="M152 670q0 31 21.5 52t51.5 21q29 0 51.5 -22.5t22.5 -50.5q0 -74 -74 -74q-73 0 -73 74z" />
<glyph unicode="&#xbb;" horiz-adv-x="720" d="M401 104h-92l275 332l-275 328h92l242 -328zM133 104h-92l276 332l-276 328h92l244 -328z" />
<glyph unicode="&#x3bc;" horiz-adv-x="1085" d="M172 197h-4q-18 -156 -35 -310q-29 -233 -50.5 -275t-62.5 -42q-29 0 -50 18.5t-21 44.5q0 53 47 238q59 229 117 506l112 538h123l-115 -536q-8 -39 -8 -90q0 -90 41 -150q45 -70 131 -69q209 0 289 348l115 497h123l-121 -544q-29 -129 -29 -185q0 -98 80 -98 q72 0 115 68q23 35 53 127q23 68 43 67q29 0 29 -33q0 -111 -80 -217q-86 -115 -195 -114q-74 0 -112 73q-29 57 -29 140h-6q-90 -219 -279 -219q-194 0 -221 217z" />
<glyph unicode="&#x401;" horiz-adv-x="772" d="M274 1399v-400h197v183h31v-453h-31q0 154 -22 186q-31 51 -175 52v-928h185q76 0 129 10q90 16 112 146q6 39 7 204h34v-499h-34v100h-662v39h125v1255q0 66 -33 88q-27 16 -92 17v35h664v106h32v-534h-34q0 279 -39 333q-27 39 -80 49.5t-146 10.5h-168zM207 1677 q0 33 24.5 56.5t57.5 23.5t56.5 -23.5t23.5 -56.5t-22.5 -56.5t-57.5 -23.5q-82 0 -82 80zM498 1677q0 33 22.5 56.5t54.5 23.5q35 0 58.5 -23.5t23.5 -56.5q0 -80 -82 -80q-77 0 -77 80z" />
<glyph unicode="&#x410;" horiz-adv-x="1021" d="M365 0h-371v39h80l424 1493l379 -1344q25 -86 43 -108q31 -41 102 -41v-39h-346v39h145l-233 833h-230l-172 -614q-18 -66 -18 -111q0 -82 63 -100q25 -8 134 -8v-39zM369 911h211l-84 306q-14 51 -15 100h-4z" />
<glyph unicode="&#x411;" horiz-adv-x="1142" d="M262 80v-80h-215v39h123v1255q0 68 -29 86q-20 14 -94 15v39h715v106h35v-416h-35q0 166 -19 205q-35 66 -178 66h-291v-471q121 57 275 57q223 0 386 -143.5t163 -364.5q0 -233 -156 -367q-145 -123 -383 -122q-72 0 -156 24q-94 29 -137 72h-4zM274 840v-566 q0 -121 95 -192q86 -66 211 -66q201 0 311 129q102 123 102 328q0 182 -125 325.5t-305 143.5t-289 -102z" />
<glyph unicode="&#x412;" horiz-adv-x="1142" d="M262 0h-215v39h123v1243q0 74 -25.5 95.5t-97.5 21.5v35h227v-82h5q111 115 288 114q106 0 189 -63q90 -70 90 -172q0 -197 -240 -250v-4q213 -18 350 -148q141 -137 142 -348q0 -233 -150.5 -365t-388.5 -132q-70 0 -156 24q-94 29 -137 72h-4v-80zM274 1235v-231 q86 -16 175 -17q121 0 198 45q94 53 94 166q0 100 -57 163.5t-156 63.5q-86 0 -163 -51q-91 -59 -91 -139zM444 952h-170v-678q0 -121 95 -192q86 -66 211 -66q199 0 311 148q102 133 102 336q0 452 -549 452z" />
<glyph unicode="&#x413;" horiz-adv-x="759" d="M518 39v-39h-473v39h125v1255q0 66 -33 88q-27 16 -92 17v35h657v106h35v-504h-35q0 172 -6 209q-23 129 -114 146q-45 8 -138 8h-170v-1163q0 -150 48 -179q28 -18 196 -18z" />
<glyph unicode="&#x414;" horiz-adv-x="1019" d="M813 0h-608q-106 0 -144 -43q-31 -35 -30 -119q0 -18 2 -66t2 -77h-35v457h35v-113h43q76 0 127 88q43 76 43 156v1001q0 78 -37 98q-23 12 -113 13v39h842v-39h-127v-1243q0 -78 51 -101q29 -12 123 -12v113h33v-457h-33q0 25 2 67v62q0 90 -28 127q-39 49 -148 49z M207 39h502v1221q0 135 -127 135h-287v-1108q0 -178 -88 -242v-6z" />
<glyph unicode="&#x415;" horiz-adv-x="772" d="M274 1399v-400h197v183h31v-453h-31q0 154 -22 186q-31 51 -175 52v-928h185q76 0 129 10q90 16 112 146q6 39 7 204h34v-499h-34v100h-662v39h125v1255q0 66 -33 88q-27 16 -92 17v35h664v106h32v-534h-34q0 182 -7 223q-23 141 -118 160q-51 10 -140 10h-168z" />
<glyph unicode="&#x416;" horiz-adv-x="1691" d="M672 1395v39h360v-39h-135v-498q125 0 176 84l211 340q84 135 186 135q57 0 96.5 -39t39.5 -96t-56.5 -97t-115.5 -40v14q35 12 62.5 43t27.5 64q0 90 -70 90q-74 0 -121 -74l-246 -391l406 -803q29 -57 66 -74q29 -14 100 -14v-39h-223l-424 872q-41 -12 -115 -12v-645 q0 -106 30.5 -141t135.5 -35v-39h-391v39h123v821q-74 0 -115 12l-426 -872h-219v39q68 0 101.5 16.5t62.5 71.5l405 803l-246 391q-47 74 -122 74q-68 0 -68 -90q0 -76 90 -107v-14q-59 0 -113 37q-59 43 -59 100t39 96t96 39q104 0 189 -135l208 -340q51 -84 177 -84v387 q0 72 -29 94q-22 17 -94 17z" />
<glyph unicode="&#x417;" horiz-adv-x="1198" d="M473 952v39q350 0 350 211q0 102 -59 162.5t-162 60.5q-152 0 -211 -108q-45 -80 -45 -244h-35v467h35v-182h6q41 45 123 76q74 29 141 28q125 0 211 -51q100 -61 101 -180q0 -96 -62.5 -171t-156.5 -79v-4q186 -25 317 -152q139 -135 139 -317q0 -225 -158.5 -381 t-383.5 -156q-223 0 -387 103q-193 119 -193 329q0 168 118 281t288 113q109 0 194.5 -67.5t85.5 -174.5q0 -143 -143 -143q-63 0 -111 43l12 20q25 -23 52 -22q100 0 100 102q0 88 -64.5 141.5t-154.5 53.5q-133 0 -222 -88.5t-89 -221.5q0 -180 159 -299 q145 -106 332 -106q203 0 331 136t128 341q0 254 -176 358q-138 82 -410 82z" />
<glyph unicode="&#x418;" horiz-adv-x="1024" d="M45 1397v37h358v-37h-129v-865h5l436 648q35 51 35 104q0 76 -25 94.5t-104 18.5v37h360v-37h-125v-1227q0 -74 25.5 -102.5t99.5 -28.5v-39h-360v39h129v1102h-5l-434 -641q-37 -55 -37 -129v-207q0 -82 41 -107q31 -18 121 -18v-39h-391v39h125v1245q0 70 -31 94 q-24 19 -94 19z" />
<glyph unicode="&#x419;" horiz-adv-x="1024" d="M45 1395v39h348v-39h-119v-863h5l436 648q35 51 35 104q0 76 -29 94q-20 16 -100 17v39h360v-39h-125v-1225q0 -74 25.5 -102.5t99.5 -28.5v-39h-360v39h129v1102h-5l-434 -641q-37 -55 -37 -129v-207q0 -82 41 -107q31 -18 121 -18v-39h-391v39h125v1245 q0 70 -27.5 90.5t-97.5 20.5zM698 1833l43 27q8 -37 9 -68q0 -106 -73 -174t-179 -68q-84 0 -150 49q-74 53 -74 134q0 39 22.5 73.5t59.5 34.5q41 0 84 -33l-8 -18q-76 0 -76 -80q0 -59 41 -90t101 -31q96 0 152.5 54.5t56.5 150.5q-1 27 -9 39z" />
<glyph unicode="&#x41a;" horiz-adv-x="1054" d="M35 39h123v1245q0 76 -27 98q-23 16 -96 17v35h358v-35h-133v-502q125 0 176 84l209 340q84 135 186 135q57 0 97.5 -39t40.5 -96t-56.5 -97t-115.5 -40v14q33 12 61.5 43t28.5 64q0 92 -70 92q-74 0 -121 -76l-245 -391l405 -803q29 -55 66 -74q31 -14 98 -14v-39h-221 l-424 872q-45 -12 -115 -12v-637q0 -106 25 -141q33 -43 141 -43v-39h-391v39z" />
<glyph unicode="&#x41b;" horiz-adv-x="1024" d="M127 1395v39h854v-39h-125v-1225q0 -74 25.5 -102.5t99.5 -28.5v-39h-360v39h129v1221q0 84 -22.5 109.5t-104.5 25.5h-265v-1225q0 -86 -45 -138t-129 -52q-164 0 -164 151q0 57 60.5 106.5t120.5 49.5v-17q-90 -37 -90 -139q0 -92 73 -92q127 0 127 166v1079 q0 76 -59 98q-35 13 -125 13z" />
<glyph unicode="&#x41c;" horiz-adv-x="1142" d="M33 39h127v1239q0 72 -28 96.5t-99 24.5v35h198l340 -805h7l296 805h232v-35h-127v-1229q0 -78 23.5 -104.5t103.5 -26.5v-39h-354v39h122v1243h-4l-321 -848l-340 803h-4v-1067q0 -78 45 -107q35 -25 115 -24v-39h-332v39z" />
<glyph unicode="&#x41d;" horiz-adv-x="1024" d="M621 1399v35h360v-35h-125v-1229q0 -74 25.5 -102.5t99.5 -28.5v-39h-360v39h129v919h-476v-788q0 -131 129 -131v-39h-358v39h125v1245q0 70 -27.5 92.5t-97.5 22.5v35h358v-35h-129v-402h476v258q0 86 -22.5 115t-106.5 29z" />
<glyph unicode="&#x41e;" horiz-adv-x="1705" d="M1626 721q0 -324 -246 -541q-238 -209 -565 -209q-315 0 -525 211t-210 527q0 322 231 540q229 213 553 213q322 0 542 -209.5t220 -531.5zM1513 731q0 285 -193.5 489.5t-475.5 204.5q-293 0 -477 -227q-174 -211 -174 -510q0 -291 182 -481q186 -197 475 -197 q201 0 362.5 107.5t243.5 292.5q57 128 57 321z" />
<glyph unicode="&#x41f;" horiz-adv-x="1024" d="M45 1395v39h936v-39h-125v-1225q0 -74 25.5 -102.5t99.5 -28.5v-39h-360v39h129v1221q0 84 -22.5 109.5t-104.5 25.5h-349v-1233q0 -82 41 -107q31 -16 121 -16v-39h-391v39h125v1245q0 70 -27.5 90.5t-97.5 20.5z" />
<glyph unicode="&#x420;" horiz-adv-x="1320" d="M49 39h127v1243q0 70 -27.5 93.5t-99.5 23.5v35h230v-82q213 111 405 110q260 0 423 -161.5t163 -421.5q0 -281 -177.5 -451t-457.5 -170q-203 0 -356 115v-133q0 -125 35.5 -163t158.5 -38v-39h-424v39zM279 1255v-774q139 -176 380 -176q248 0 385 162q125 152 125 403 q0 221 -145 382t-365 161q-192 0 -380 -158z" />
<glyph unicode="&#x421;" horiz-adv-x="1298" d="M1139 1540h35v-553h-35v156q0 133 -109 207q-94 61 -233 61q-262 0 -443 -201q-172 -195 -172 -460q0 -297 180 -510q190 -223 484 -224q223 0 389 166l29 -30q-184 -180 -457 -181q-326 0 -531.5 214t-205.5 540q0 303 204.5 516t505.5 213q248 0 359 -90v176z" />
<glyph unicode="&#x422;" horiz-adv-x="897" d="M700 39v-39h-501v39h196v1360h-112q-129 0 -169 -43t-44 -201q2 78 2 -192h-33v577h33v-106h753v106h35v-577h-35q0 338 4 190q-4 160 -40.5 203t-155.5 43h-131v-1229q0 -98 53 -121q26 -10 145 -10z" />
<glyph unicode="&#x423;" horiz-adv-x="927" d="M639 1399v35h332v-35h-80l-328 -1139q-84 -289 -260 -289q-78 0 -129 35q-59 41 -59 115q0 59 50 99t111 40v-14q-102 -18 -102 -125q0 -121 129 -121q63 0 134 86t71 152q0 37 -27 129l-252 880q-29 100 -51 123q-31 29 -127 29v35h328v-35h-92l270 -987h6l221 792 q10 37 11 82q0 74 -43 98q-29 15 -113 15z" />
<glyph unicode="&#x424;" horiz-adv-x="1746" d="M926 1055v-518q0 -121 96 -183q82 -51 209 -51q197 0 301 129q94 117 94 320q0 184 -113 323q-121 147 -301 148q-72 0 -172 -49q-114 -56 -114 -119zM821 498v503q0 100 -106 166q-92 55 -199 56q-199 0 -303 -129q-98 -119 -98 -322q0 -182 116 -321q125 -147 304 -148 q84 0 178 55q108 62 108 140zM696 1399v35h357v-35h-127v-219q150 82 272 82q227 0 376.5 -141.5t149.5 -368.5q0 -233 -139 -361.5t-375 -128.5q-197 0 -280 84h-4v-176q0 -131 139 -131v-39h-383v39h139v305h-4q-23 0 -116 -41t-152 -41q-225 0 -379 143.5t-154 366.5 q0 233 146 365q139 125 375 125q199 0 284 -82v114q0 70 -28 90q-23 15 -97 15z" />
<glyph unicode="&#x425;" horiz-adv-x="1165" d="M125 39l407 848l-229 448q-25 47 -78 60q-20 4 -102 4v35h383v-35h-123l205 -406h8l158 324q12 25 12 47q0 35 -117 35v35h350v-35h-161l-222 -459l363 -764q41 -86 94 -115q45 -23 144 -22v-39h-449v39h172l-377 784h-6l-295 -614q-37 -78 -37 -109q0 -47 74 -59 q20 -2 111 -2v-39h-453v39h168z" />
<glyph unicode="&#x426;" horiz-adv-x="1044" d="M29 39h159v1210q0 150 -141 150v35h356v-35h-110v-1215q0 -145 127 -145h315v1210q0 150 -139 150v35h385v-35h-141v-1247q0 -84 47 -103q25 -10 125 -10v113h32v-457h-32v227q0 78 -105 78h-878v39z" />
<glyph unicode="&#x427;" horiz-adv-x="1230" d="M-18 1399v35h395v-35h-152v-438q0 -182 126 -325.5t306 -143.5q174 0 285 104v688q0 70 -34 92.5t-103 22.5v35h381v-35h-137v-1258q0 -70 28 -88q20 -14 94 -14v-39h-399v39h170v473q-119 -59 -272 -59q-223 0 -385 143t-162 365v323q0 59 -29.5 87t-111.5 28z" />
<glyph unicode="&#x428;" horiz-adv-x="1316" d="M434 39h172v1245q0 115 -102 115v35h307v-35h-100v-1215q0 -145 147 -145h172v1245q0 66 -28.5 90.5t-96.5 24.5v35h357v-35h-127v-1215q0 -84 33.5 -114.5t119.5 -30.5v-39h-1259v39h153v1245q0 115 -127 115v35h353v-35h-121v-1215q0 -145 147 -145z" />
<glyph unicode="&#x429;" horiz-adv-x="1337" d="M434 39h172v1245q0 115 -102 115v35h307v-35h-100v-1215q0 -145 147 -145h172v1245q0 66 -28.5 90.5t-96.5 24.5v35h357v-35h-127v-1247q0 -84 49 -105q23 -8 125 -8v113h28v-457h-28v227q0 78 -109 78h-1171v39h153v1245q0 115 -127 115v35h353v-35h-121v-1215 q0 -145 147 -145z" />
<glyph unicode="&#x42a;" horiz-adv-x="1490" d="M428 82v-82h-231v39h125v1229q0 76 -15 98q-20 33 -88 33q-102 0 -135 -49q-27 -41 -31 -174q0 27 0 -175h-35v539h35v-106h568v-35h-193v-338q158 115 356 115q264 0 455 -177q195 -182 195 -444q0 -246 -177.5 -415t-425.5 -169q-190 0 -403 111zM428 954v-776 q188 -158 379 -158q223 0 374.5 160t151.5 385q0 236 -143 398q-150 168 -383 167q-240 0 -379 -176z" />
<glyph unicode="&#x42b;" horiz-adv-x="1697" d="M274 82v-82h-229v39h125v1229q0 131 -125 131v35h424v-35h-195v-338q154 115 357 115q272 0 440 -173.5t168 -447.5q0 -248 -156.5 -416t-402.5 -168q-195 0 -406 111zM274 954v-776q188 -158 381 -158q219 0 357 166q127 154 127 379q0 236 -121 393q-133 172 -363 172 q-242 0 -381 -176zM1270 1399v35h385v-35h-142v-1229q0 -131 142 -131v-39h-385v39h141v1245q0 115 -141 115z" />
<glyph unicode="&#x42c;" horiz-adv-x="1343" d="M274 82v-82h-229v39h125v1229q0 72 -26.5 101.5t-98.5 29.5v35h424v-35h-195v-338q154 115 357 115q264 0 456 -177q195 -182 195 -444q0 -246 -177 -415t-425 -169q-195 0 -406 111zM274 954v-776q188 -158 381 -158q223 0 375 160t152 385q0 236 -144 398 q-150 168 -383 167q-242 0 -381 -176z" />
<glyph unicode="&#x42d;" horiz-adv-x="1298" d="M586 543h-33v495h33v-172h516q0 248 -178 404q-172 150 -424 149q-139 0 -234 -67q-109 -76 -108 -209v-156h-35v553h35v-186q135 109 358 108q344 0 526.5 -195.5t182.5 -541.5q0 -348 -194.5 -551t-541.5 -203q-272 0 -456 181l28 30q158 -166 390 -166q313 0 493 201 q172 190 172 508q0 63 -10 102h-295q-158 0 -199 -67q-26 -43 -26 -217z" />
<glyph unicode="&#x42e;" horiz-adv-x="1986" d="M1176 10q295 0 469 217q162 203 161 504q0 291 -168 486q-176 207 -462 206q-299 0 -465 -200q-152 -184 -152 -492q0 -295 156 -498q172 -223 461 -223zM289 1399v-592h172q31 297 224.5 477t490.5 180q332 0 538 -225q199 -217 199 -553q0 -322 -227 -524 q-219 -193 -545 -193q-340 0 -520 228q-164 207 -164 555h-168v-582q0 -131 137 -131v-39h-381v39h137v1245q0 115 -137 115v35h381v-35h-137z" />
<glyph unicode="&#x42f;" horiz-adv-x="1441" d="M1165 422h4v838q-162 158 -393 157q-229 0 -387 -155.5t-158 -384.5t142.5 -389t369.5 -160q156 0 367 172zM1169 1352v82h230v-35q-68 0 -97.5 -24.5t-29.5 -90.5v-1245h127v-39h-422v39q121 0 158 47q35 41 34 164v166q-141 -96 -284 -193q-172 -113 -303 -168 q-174 -72 -334 -71q-66 0 -205 86l12 30q117 -72 176 -71q133 0 330 92q162 76 299 178v10q-59 -18 -133 -18q-252 0 -426 166t-174 415q0 266 178 428t447 162q192 1 417 -110z" />
<glyph unicode="&#x430;" horiz-adv-x="817" d="M780 39v-39h-202v82q-109 -100 -242 -100q-117 0 -195 90q-76 84 -75 202q0 125 88 216.5t211 91.5q129 0 213 -84v82q0 283 -213 282q-104 0 -163 -72.5t-59 -179.5h-28v320h28v-162q76 133 256 133q158 0 217 -119q39 -82 39 -260v-407q0 -55 39 -70q16 -6 86 -6z M584 287q0 131 -45 192q-51 70 -179 70q-98 0 -161 -90q-55 -80 -56 -185q0 -102 65.5 -174.5t168.5 -72.5q57 0 109.5 38.5t78.5 94.5q19 37 19 127z" />
<glyph unicode="&#x431;" horiz-adv-x="1083" d="M82 555q0 389 119 559q78 111 200 146q66 18 215 22q129 4 183.5 35t54.5 74q0 59 -80 90v14q59 0 103.5 -31.5t44.5 -89.5q0 -154 -336 -153q-160 0 -252 -58q-129 -80 -174 -241q-31 -106 -31 -306h6q123 266 438 267q178 0 305.5 -118t127.5 -296q0 -219 -125 -352 t-344 -133q-156 0 -278 94t-157 246q-20 88 -20 231zM158 436q0 -166 115.5 -287.5t279.5 -121.5q180 0 284.5 107.5t104.5 289.5q0 178 -113.5 297t-291.5 119q-104 0 -197.5 -56.5t-144.5 -148.5q-37 -68 -37 -199z" />
<glyph unicode="&#x432;" horiz-adv-x="768" d="M45 39h94v719h-6l-80 -88l-24 18l211 234l18 -15l-37 -47v-47h4q88 88 199 88q80 0 131 -46t51 -124q0 -68 -42 -114t-109 -58q281 -72 280 -303q0 -115 -81 -194.5t-195 -79.5q-137 0 -234 96h-4v-78h-176v39zM221 739v-143q25 -23 92 -23q117 0 164 21q72 35 72 135 q0 59 -37 100t-94 41t-123 -36q-74 -42 -74 -95zM311 543h-90v-293q0 -102 56.5 -166t156.5 -64q102 0 161.5 68t59.5 172q0 164 -94 229q-78 54 -250 54z" />
<glyph unicode="&#x433;" horiz-adv-x="847" d="M598 211v-14q-61 0 -104 31.5t-43 90.5t47 97.5t106 38.5q84 0 138.5 -53.5t54.5 -139.5q0 -125 -119 -207q-106 -72 -238 -71q-162 0 -264 63q-125 78 -125 229q0 129 135 207q125 53 250 105q135 59 135 145q0 129 -151 129q-106 0 -146 -67q-31 -51 -30 -164h-33v342 h33v-142q92 70 176 70q98 0 162 -43q74 -49 73 -143q0 -111 -137 -174q-127 -49 -254 -99q-137 -70 -137 -194q0 -115 104 -176q86 -51 209 -52q113 0 205 64q104 72 105 178q0 53 -37 100.5t-90 47.5q-45 0 -75 -31t-30 -76q0 -65 80 -92z" />
<glyph unicode="&#x434;" horiz-adv-x="991" d="M287 1012v-15q-57 6 -95 47t-38 99q0 92 112 139q84 35 189 35q297 0 397 -273q57 -160 57 -524q0 -217 -92 -362q-111 -174 -315 -174q-186 0 -307 135q-117 129 -117 317q0 170 106 303q115 143 281 144q324 0 395 -267h6q0 287 -65 435q-98 213 -346 213 q-242 0 -242 -138q0 -46 74 -114zM844 475q0 156 -94.5 260.5t-247.5 104.5q-174 0 -266 -125q-82 -111 -82 -291q0 -152 98 -270q102 -127 252 -127q340 -1 340 448z" />
<glyph unicode="&#x435;" horiz-adv-x="1050" d="M174 618h721v5q0 111 -119 180q-100 57 -219 57q-287 0 -383 -242zM977 338l27 -8q-53 -162 -183.5 -255t-300.5 -93q-186 0 -318 123.5t-132 310.5q0 211 134 349t343 138q336 0 434 -317h-821q-25 -70 -25 -146q0 -193 113.5 -304t308.5 -111q143 0 258 90 q111 84 162 223z" />
<glyph unicode="&#x436;" horiz-adv-x="1271" d="M492 0v39h106v436h-27l-346 -475h-186v39q68 0 84 4q29 10 61 53l324 418l-193 277q-47 68 -94 67q-45 0 -45 -63q0 -53 62 -70v-12q-43 0 -76 24q-39 29 -39 70q0 39 24.5 63.5t63.5 24.5q70 0 133 -88l184 -256q27 -37 70 -37v485h-4l-82 -90l-25 21l209 237l27 -22 l-45 -51v-580q41 0 67 37l185 256q63 88 131 88q90 0 90 -88q0 -41 -36 -67.5t-77 -26.5v12q61 18 62 70q0 63 -45 63q-49 0 -97 -67l-194 -277l323 -418q35 -45 64 -53q14 -4 84 -4v-39h-184l-351 475h-22v-360q0 -76 115 -76v-39h-301z" />
<glyph unicode="&#x437;" horiz-adv-x="827" d="M207 969h33v-142q88 74 192 74q82 0 143 -45q68 -51 68 -131q0 -113 -125 -158v-8q119 -14 196 -90t77 -193q0 -293 -383 -292q-137 0 -244 61q-125 74 -125 201q0 82 59.5 137t141.5 55q59 0 106 -32q55 -35 55 -93q0 -57 -43 -88.5t-102 -31.5v14q78 31 78 90 q0 96 -94 96q-63 0 -109.5 -42t-46.5 -105q0 -123 115 -183q88 -43 225 -43q123 0 199 56q86 61 86 180q0 279 -285 279h-76v30q223 0 223 160q0 59 -44 99t-105 40q-117 0 -164 -88q-18 -35 -18 -129h-33v322z" />
<glyph unicode="&#x438;" horiz-adv-x="860" d="M821 39v-39h-205v123h-4q-53 -80 -100 -107q-53 -33 -143 -32q-127 0 -174 98q-31 66 -31 211v498h-4l-82 -93l-25 23l209 235l27 -20l-45 -53v-621q0 -236 143 -235q86 0 157.5 78.5t71.5 164.5v482q0 55 -20.5 77.5t-73.5 22.5v31h174v-752q0 -59 35 -80q24 -12 90 -12 z" />
<glyph unicode="&#x439;" horiz-adv-x="860" d="M164 791h-4l-82 -93l-25 23l209 235l27 -20l-45 -53v-621q0 -236 143 -235q86 0 157.5 78.5t71.5 164.5v482q0 55 -20.5 77.5t-73.5 22.5v31h174v-752q0 -59 35 -80q25 -12 90 -12v-39h-205v123h-4q-53 -80 -100 -107q-53 -33 -143 -32q-127 0 -174 98q-31 66 -31 211 v498zM616 1352h39q0 -109 -63.5 -184.5t-167.5 -75.5q-78 0 -135 43q-63 45 -64 120q0 35 18.5 66t51.5 31q49 0 78 -27l-11 -16q-68 0 -67 -72q0 -55 37 -85t92 -30q94 0 145 70q47 62 47 160z" />
<glyph unicode="&#x43a;" horiz-adv-x="839" d="M74 0v39h90v752h-4l-82 -93l-25 23l209 235l27 -20l-45 -53v-369q41 0 67 37l187 256q63 88 131 88q90 0 90 -88q0 -41 -37 -67.5t-78 -26.5v12q61 18 62 70q0 63 -45 63t-82 -51l-209 -293l325 -418q35 -45 62 -53q12 -4 84 -4v-39h-185l-350 475h-22v-360 q0 -76 114 -76v-39h-284z" />
<glyph unicode="&#x43b;" horiz-adv-x="718" d="M719 39v-39h-285v39h90v719q0 37 -4 55q-12 39 -84 39h-186v-733q0 -133 -121 -133q-115 0 -115 106q0 41 43 74t84 33v-9q-4 -10 -33.5 -41.5t-29.5 -56.5q0 -66 51 -65q92 0 92 116v631q0 51 -35 68q-23 10 -82 10v31h590v-31h-88v-733q0 -53 33 -70q21 -10 80 -10z " />
<glyph unicode="&#x43c;" horiz-adv-x="866" d="M47 852v31h146l235 -482l215 482h156v-31h-80v-733q0 -51 29 -68q23 -12 75 -12v-39h-288v39h102v741h-4l-223 -514l-236 482h-6v-617q0 -92 111 -92v-39h-246v39h102v735q0 47 -20.5 62.5t-67.5 15.5z" />
<glyph unicode="&#x43d;" horiz-adv-x="858" d="M799 39v-39h-291v39h106v504h-370v-424q0 -51 28 -68q20 -12 76 -12v-39h-289v39h105v719h-4l-82 -88l-23 18l209 234l25 -25l-45 -45v-279h370v187q0 53 -15 72.5t-75 19.5v31h269v-31h-99v-733q0 -49 29 -68q23 -12 76 -12z" />
<glyph unicode="&#x43e;" horiz-adv-x="1075" d="M70 444q0 195 143 326t340 131q193 0 323 -122t130 -314q0 -203 -141.5 -342t-346.5 -139q-195 0 -321.5 131.5t-126.5 328.5zM150 451q0 -166 98 -293q109 -137 270 -138q172 0 290 120t118 292t-99 297q-106 135 -274 135q-186 0 -294.5 -113.5t-108.5 -299.5z" />
<glyph unicode="&#x43f;" horiz-adv-x="847" d="M59 39h105v727l-88 -96l-25 18l209 234l27 -21l-43 -49v-72h4q88 121 229 121q217 0 217 -319v-455q0 -88 105 -88v-39h-277v39h92v575q0 236 -165 236q-82 0 -143.5 -67.5t-61.5 -151.5v-504q0 -88 102 -88v-39h-287v39z" />
<glyph unicode="&#x440;" horiz-adv-x="1148" d="M283 901l-39 -45v-121h4q154 166 375 166q205 0 332.5 -128t127.5 -333q0 -209 -134 -332.5t-343 -123.5q-233 0 -358 114h-4v-485q0 -61 37 -74q12 -4 90 -4v-35h-301v35h94v1225h-4l-84 -92l-25 18l209 236zM242 602v-313q0 -125 125 -203q106 -66 239 -66 q397 0 398 420q0 178 -119 298t-295 120q-106 0 -221 -74q-127 -82 -127 -182z" />
<glyph unicode="&#x441;" horiz-adv-x="909" d="M846 178l20 -26q-162 -170 -362 -170q-184 0 -309 125.5t-125 310.5q0 205 144 344t349 139q115 0 199 -39h4v94h29v-464h-29v262q-92 109 -234 108q-180 0 -286 -131q-100 -123 -101 -307q0 -172 108.5 -289t278.5 -117q138 0 314 160z" />
<glyph unicode="&#x442;" horiz-adv-x="1075" d="M244 614v-483q0 -92 94 -92v-39h-279v39h105v725h-4l-88 -92l-21 22l203 228l25 -21l-35 -43v-76h4q63 119 176 119q131 0 147 -121h7q57 121 172 121q109 0 145 -78q27 -53 27 -176v-516q0 -92 102 -92v-39h-264v39h80v641q0 170 -99 170q-76 0 -120 -82 q-39 -68 -39 -152v-485q0 -92 96 -92v-39h-256v39h80v641q0 170 -90 170q-76 0 -125 -84q-43 -72 -43 -152z" />
<glyph unicode="&#x443;" horiz-adv-x="802" d="M-59 -532v116h18q0 -16 19.5 -32.5t35.5 -16.5q70 0 101 41q141 193 245 457l-292 778h-5l-98 -113l-24 21l209 235l24 -18l-45 -53l270 -742h9l155 437q39 109 39 206q0 68 -108 68v31h311v-31h-92q-53 -129 -113 -295q-395 -1114 -588 -1114q-51 0 -71 25z" />
<glyph unicode="&#x444;" horiz-adv-x="1818" d="M721 -469h149v610q-154 -158 -383 -157q-197 0 -308 116.5t-111 315.5q0 197 121.5 341t316.5 144q217 0 358 -137h6v514h-6l-80 -90l-24 18l227 252l27 -22l-64 -70v-602h4q100 78 174 104q82 33 201 33q195 0 308.5 -119.5t113.5 -316.5q0 -193 -121 -334 q-127 -147 -317 -147q-213 0 -363 157v-528q0 -68 47 -80q8 -2 105 -2v-31h-381v31zM948 612v-323q0 -125 125 -203q106 -66 240 -66q170 0 266 115q90 106 90 281q0 193 -88 309q-100 133 -285 133q-125 0 -227 -59q-121 -70 -121 -187zM872 283v315q0 125 -124 201 q-109 63 -242 63q-170 0 -264.5 -111.5t-94.5 -285.5q0 -186 91 -307q100 -137 280 -138q121 0 230 70q124 80 124 193z" />
<glyph unicode="&#x445;" horiz-adv-x="968" d="M365 0h-349v39h109l313 463l-194 299h-13l-73 -88l-27 22l195 219l22 -18l-51 -62l192 -305l111 164q31 45 31 84q0 29 -35 35h-59v31h286v-31h-98l-213 -315l252 -392q45 -70 80 -88t114 -18v-39h-327v39h110l-280 432l-201 -301q-29 -43 -29 -84q0 -37 54 -45 q10 -2 80 -2v-39z" />
<glyph unicode="&#x446;" horiz-adv-x="847" d="M68 670l-23 18l209 234l18 -15l-39 -47v-596q0 -240 166 -239q82 0 143.5 72.5t61.5 156.5v504q0 57 -22.5 75.5t-79.5 18.5v31h289v-31h-107v-721q0 -92 74 -92q57 0 104 51l21 -22l-199 -228l-27 29l123 131h-168v125q-92 -143 -239 -143q-221 0 -221 321v455h-5z" />
<glyph unicode="&#x447;" horiz-adv-x="806" d="M766 39v-39h-334v39h131v377h-6q-76 -96 -221 -97q-205 0 -205 236v236h-4l-80 -93l-27 23l211 235l25 -20l-45 -53v-320q0 -201 145 -201q84 0 145.5 58.5t61.5 142.5v189q0 63 -23.5 81.5t-88.5 18.5v31h309v-31h-117v-721q0 -59 35 -78q25 -14 88 -14z" />
<glyph unicode="&#x448;" horiz-adv-x="1073" d="M750 852v31h245v-31h-84v-721q0 -61 35 -82q25 -14 90 -14v-35h-198v102h-13q-59 -119 -176 -118q-125 0 -147 133q-55 -133 -178 -133q-106 0 -146 79q-27 55 -26 175v520h-5l-79 -88l-23 18l209 234l22 -25l-43 -45v-647q0 -170 101 -170q76 0 121 82q37 68 37 149v500 q0 55 -24 70.5t-81 15.5v31h264v-31h-80v-647q0 -170 93 -170q76 0 122 84q43 72 43 151v496q0 49 -15 67.5t-64 18.5z" />
<glyph unicode="&#x449;" horiz-adv-x="1077" d="M829 270v496q0 49 -15 67.5t-64 18.5v31h249v-31h-88v-721q0 -96 74 -96q51 0 102 55l23 -22l-199 -228l-28 29l123 131h-166v102h-15q-59 -119 -176 -118q-125 0 -147 127q-68 -127 -178 -127q-106 0 -146 79q-27 55 -26 175v520h-5l-79 -88l-23 18l209 234l22 -25 l-43 -45v-647q0 -170 101 -170q76 0 121 82q37 68 37 149v500q0 59 -23 76q-16 10 -82 10v31h270v-31h-86v-647q0 -170 93 -170q76 0 122 84q43 71 43 151z" />
<glyph unicode="&#x44a;" horiz-adv-x="856" d="M63 39h144v737q0 76 -68 76q-90 0 -90 -121q0 -16 2 -49t2 -47h-33v317h33v-69h383v-31h-147v-330q61 51 188 51q143 0 235.5 -87t92.5 -230q0 -119 -79 -195.5t-198 -76.5q-152 0 -235 94h-4v-78h-226v39zM289 473v-223q0 -104 55 -167t158 -63q223 0 223 240 q0 283 -266 283q-100 0 -170 -70z" />
<glyph unicode="&#x44b;" horiz-adv-x="1122" d="M59 39h105v719h-4l-82 -88l-23 18l209 234l25 -25l-45 -45v-332q84 53 209 53q141 0 219 -86t78 -231q0 -115 -76 -193.5t-189 -78.5q-154 0 -237 94h-4v-78h-185v39zM244 477v-227q0 -104 55 -167t158 -63q106 0 164.5 67t58.5 173q0 283 -262 283q-113 0 -174 -66z M1059 39v-39h-299v39h114v727q0 61 -26 78q-16 8 -88 8v31h282v-31h-88v-735q1 -78 105 -78z" />
<glyph unicode="&#x44c;" horiz-adv-x="811" d="M61 39h103v719h-4l-82 -88l-23 18l209 234l25 -25l-45 -45v-328q63 49 174 49q152 0 247 -83.5t95 -233.5q0 -115 -80 -193.5t-195 -78.5q-154 0 -237 94h-4v-78h-183v39zM244 461v-211q0 -229 213 -230q106 0 164.5 67t58.5 173q0 283 -262 283q-92 0 -174 -82z" />
<glyph unicode="&#x44d;" horiz-adv-x="909" d="M111 956h30v-137q119 82 242 82q205 0 330 -112.5t125 -315.5q0 -223 -103 -352q-113 -139 -332 -139q-215 0 -360 170l20 26q137 -156 314 -155q381 0 381 469h-375v-195h-31v360h31v-135h375q0 342 -381 342q-141 0 -236 -110v-197h-30v399z" />
<glyph unicode="&#x44e;" horiz-adv-x="1314" d="M457 451q0 -156 90 -285q100 -145 250 -146q174 0 272 121q92 113 92 291q0 164 -82 287q-94 141 -250 141q-170 0 -274 -123q-98 -114 -98 -286zM63 39h115v719h-4l-82 -88l-22 18l209 234l24 -25l-45 -45v-346h135q20 174 141 284.5t295 110.5q178 0 289 -126t111 -306 q0 -205 -113 -340q-119 -145 -319 -145q-129 0 -225.5 70.5t-145.5 193.5q-35 88 -35 227h-133v-358q0 -55 29 -70q16 -8 80 -8v-39h-304v39z" />
<glyph unicode="&#x44f;" horiz-adv-x="1021" d="M774 39v192q-352 -248 -612 -247q-53 0 -152 55l10 20q76 -45 140 -45q70 0 213 66l192 94l-2 4q-16 0 -52 -6t-54 -6q-162 0 -276.5 105.5t-114.5 265.5q0 170 129 274q119 96 292 96q129 0 287 -69v45h189v-31h-103v-721q0 -57 22.5 -74.5t80.5 -17.5v-39h-287v39h98z M743 289l31 -39v530q-113 90 -256 90q-147 0 -258 -90q-117 -98 -117 -241q0 -145 98.5 -243.5t245.5 -98.5q129 0 256 92z" />
<glyph unicode="&#x451;" horiz-adv-x="1050" d="M174 618h721v5q0 96 -137 165q-119 61 -226 62q-266 -1 -358 -232zM977 338l27 -8q-51 -160 -182.5 -253t-301.5 -93q-195 0 -322.5 119.5t-127.5 312.5q0 207 151.5 346t360.5 139q154 0 261 -83t138 -232h-821q-25 -70 -25 -146q0 -174 124 -293.5t298 -119.5 q143 0 256 87t164 224zM313 1124q0 29 21.5 50.5t50.5 21.5t50.5 -21.5t21.5 -50.5q0 -72 -72 -71q-72 -1 -72 71zM647 1124q0 27 22.5 49.5t49.5 22.5q29 0 51.5 -21.5t22.5 -50.5q0 -72 -74 -71q-72 -1 -72 71z" />
<glyph unicode="&#x2000;" horiz-adv-x="930" />
<glyph unicode="&#x2001;" horiz-adv-x="1860" />
<glyph unicode="&#x2002;" horiz-adv-x="930" />
<glyph unicode="&#x2003;" horiz-adv-x="1860" />
<glyph unicode="&#x2004;" horiz-adv-x="620" />
<glyph unicode="&#x2005;" horiz-adv-x="465" />
<glyph unicode="&#x2006;" horiz-adv-x="310" />
<glyph unicode="&#x2007;" horiz-adv-x="310" />
<glyph unicode="&#x2008;" horiz-adv-x="232" />
<glyph unicode="&#x2009;" horiz-adv-x="372" />
<glyph unicode="&#x200a;" horiz-adv-x="103" />
<glyph unicode="&#x2010;" horiz-adv-x="647" d="M539 524v-86h-428v86h428z" />
<glyph unicode="&#x2011;" horiz-adv-x="647" d="M539 524v-86h-428v86h428z" />
<glyph unicode="&#x2012;" horiz-adv-x="647" d="M539 524v-86h-428v86h428z" />
<glyph unicode="&#x2013;" horiz-adv-x="1024" d="M-12 442v70h1048v-70h-1048z" />
<glyph unicode="&#x2014;" horiz-adv-x="2048" d="M-25 494v69h2098v-69h-2098z" />
<glyph unicode="&#x2018;" horiz-adv-x="460" d="M209 1190q18 6 35 6q76 0 75 -78q0 -33 -22.5 -55.5t-54.5 -22.5q-96 0 -97 134q0 78 33 137q41 70 113 71v-41q-84 -35 -84 -122v-15q2 -10 2 -14z" />
<glyph unicode="&#x2019;" horiz-adv-x="460" d="M256 1233q-14 -6 -33 -6q-78 0 -78 78t80 77q96 0 97 -133q0 -78 -33 -135q-41 -72 -113 -74v41q82 33 82 123v15q-2 10 -2 14z" />
<glyph unicode="&#x201a;" horiz-adv-x="520" d="M297 6q-14 -6 -41 -6q-37 0 -61.5 25.5t-24.5 64.5t25.5 64.5t64.5 25.5q109 0 109 -151q0 -90 -37 -158q-45 -84 -127 -84v47q102 41 102 133q0 25 -10 39z" />
<glyph unicode="&#x201c;" horiz-adv-x="745" d="M209 1190q18 6 35 6q76 0 75 -78q0 -33 -22.5 -55.5t-54.5 -22.5q-96 0 -97 134q0 78 33 137q41 70 113 71v-41q-84 -35 -84 -122v-15q2 -10 2 -14zM494 1190q14 6 32 6q33 0 55.5 -22.5t22.5 -55.5t-23.5 -55.5t-56.5 -22.5q-94 0 -94 134q0 78 33 135q39 72 110 73v-41 q-82 -33 -81 -122v-15q2 -10 2 -14z" />
<glyph unicode="&#x201d;" horiz-adv-x="745" d="M256 1233q-14 -6 -33 -6q-78 0 -78 78t80 77q96 0 97 -133q0 -78 -33 -135q-41 -72 -113 -74v41q82 33 82 123v15q-2 10 -2 14zM537 1233q-18 -6 -33 -6q-76 0 -76 78t78 77q96 0 96 -133q0 -76 -35 -135q-41 -72 -110 -74v41q82 35 82 121q0 17 -2 31z" />
<glyph unicode="&#x201e;" horiz-adv-x="745" d="M256 2q-14 -6 -33 -6q-33 0 -55.5 22.5t-22.5 55.5t24 55.5t56 22.5q92 0 92 -132q0 -80 -30 -137q-39 -72 -111 -73v43q82 31 82 122v13q-2 10 -2 14zM551 2q-14 -6 -35 -6q-31 0 -53.5 22.5t-22.5 55.5t22.5 55.5t55.5 22.5q94 0 94 -132q0 -76 -32 -135 q-39 -74 -109 -75v43q82 31 82 122v13q-2 10 -2 14z" />
<glyph unicode="&#x2020;" horiz-adv-x="862" d="M367 461q43 172 43 383h-107q-104 0 -256 -35v117q180 -31 256 -31h107v141q0 133 -37 318h116q-37 -162 -36 -459h106q68 0 256 31v-117q-156 35 -256 35h-106v-82q0 -129 43 -301q-39 -152 -50 -443q-2 -223 -6 -446h-37q0 657 3 444q-4 293 -39 445z" />
<glyph unicode="&#x2022;" horiz-adv-x="1249" d="M315 788q0 125 91.5 215.5t216.5 90.5t215 -90.5t90 -215.5t-91.5 -216t-215.5 -91q-127 0 -216.5 90t-89.5 217z" />
<glyph unicode="&#x2026;" horiz-adv-x="2168" d="M455 74q0 -33 -22.5 -55.5t-55.5 -22.5t-55.5 22.5t-22.5 55.5t22.5 55.5t55.5 22.5t55.5 -22.5t22.5 -55.5zM1161 74q0 -33 -23.5 -55.5t-56.5 -22.5t-55 22.5t-22 55.5t22.5 55.5t54.5 22.5q33 0 56.5 -22.5t23.5 -55.5zM1868 74q0 -33 -22.5 -55.5t-55.5 -22.5 t-56.5 22.5t-23.5 55.5t23.5 55.5t56.5 22.5t55.5 -22.5t22.5 -55.5z" />
<glyph unicode="&#x202f;" horiz-adv-x="372" />
<glyph unicode="&#x2030;" horiz-adv-x="2007" d="M635 950q0 -143 -82 -243q-88 -109 -229 -109q-129 0 -209 104q-76 96 -76 228q0 150 76 252q86 115 229 114q135 0 217 -108q74 -99 74 -238zM340 637q115 0 178 104q51 88 51 211q0 121 -57 205q-66 98 -180 98q-115 0 -176 -108q-49 -88 -50 -213q0 -115 58 -199 q67 -98 176 -98zM283 -61h-70l825 1384h60zM1286 324q0 -143 -82 -244q-88 -109 -227 -109q-129 0 -211 105q-78 96 -78 227q0 150 78 252q84 115 229 115q135 0 217 -109q74 -98 74 -237zM993 8q115 0 176 107q53 88 54 209q0 121 -58 206q-66 98 -180 99q-117 0 -178 -109 q-49 -88 -49 -213q0 -115 59 -201q65 -98 176 -98zM1978 324q0 -143 -82 -244q-88 -109 -229 -109q-129 0 -211 103q-76 96 -76 229q0 150 78 252q84 115 230 115q137 0 219 -107q71 -98 71 -239zM1683 8q115 0 177 107q53 88 53 209t-58 206q-66 98 -180 99 q-117 0 -178 -109q-49 -88 -49 -213q0 -115 59 -201q67 -98 176 -98z" />
<glyph unicode="&#x2039;" horiz-adv-x="450" d="M319 764h93l-277 -330l277 -328h-93l-243 328z" />
<glyph unicode="&#x203a;" horiz-adv-x="450" d="M143 106h-90l275 330l-275 328h90l244 -328z" />
<glyph unicode="&#x205f;" horiz-adv-x="465" />
<glyph unicode="&#x2116;" horiz-adv-x="1642" d="M168 1413v33h192l535 -1200h4v1038q0 84 46 137.5t128 53.5q164 0 164 -154q0 -59 -59.5 -106.5t-120.5 -47.5v15q90 37 90 139q0 94 -74 94q-127 0 -127 -168v-1261l-600 1245h-10v-1049q0 -84 -45 -137t-127 -53q-164 0 -164 151q0 59 60.5 107.5t119.5 48.5v-14 q-92 -41 -92 -142q0 -92 76 -92q127 0 127 168v1049q0 86 -20.5 115.5t-102.5 29.5zM1341 918q119 0 185 -107q57 -88 57 -215q0 -135 -65 -234q-76 -111 -205 -110q-119 0 -185 100q-57 86 -57 211q0 137 66 238q73 117 204 117zM1536 573q0 111 -51 195q-59 98 -164 98 q-100 0 -154 -94q-43 -78 -43 -184t52 -189q59 -96 159 -96q102 0 156 88q45 73 45 182zM1110 45v78h438v-78h-438z" />
<glyph unicode="&#x2122;" horiz-adv-x="1740" d="M262 1300l10 181h453l10 -181h-24q-8 90 -44 123t-126 33v-440q0 -41 22 -53q12 -6 60 -7v-22h-250v22q53 0 63 5q20 10 21 55v440h-23q-133 0 -147 -156h-25zM827 1456v25h177l151 -428l162 428h168v-25q-47 0 -60 -6q-23 -10 -22 -53v-381q0 -41 22 -53q12 -6 60 -7 v-22h-236v22q47 0 60 7q23 12 22 53v405h-6l-186 -491h-9l-176 491h-4v-405q0 -41 23 -53q14 -6 61 -7v-22h-207v22q47 0 62 7q23 12 22 53v383q0 41 -24 51q-13 6 -60 6z" />
<glyph unicode="&#xe000;" horiz-adv-x="952" d="M0 952h952v-952h-952v952z" />
</font>
</defs>
</svg>
